<svg xmlns="http://www.w3.org/2000/svg" viewBox="0 0 227.3 133.09"><title>whatsapnea</title><path class="whatsapnea" d="M35.71,66.88c-1.24,2.47-3,4.81-3.62,7.43C29.64,85.12,27.5,96,25.36,106.87c-0.86,4.39-1.36,8.84-2.12,13.25a5.85,5.85,0,0,1-1.16,3.09c-1,1-2.51,2.11-3.71,2a4.66,4.66,0,0,1-3.31-2.55,13.08,13.08,0,0,1-.59-6.07c1.53-10.81,3-21.63,5-32.35a88,88,0,0,1,5-16.24,26.9,26.9,0,0,1,5.78-8.67c4-4,9.35-3.86,12.94.49A41.38,41.38,0,0,1,49.5,70.63c4.31,10.77,6,22.2,7.86,33.58,2.92,18,5.74,36,8.89,54,0.72,4.09,2.57,8,4,11.93a31.79,31.79,0,0,0,2.55,4.32c1.22-2,2.23-3.3,2.94-4.77,3.58-7.46,5.13-15.49,6.36-23.58,2.85-18.71,5.42-37.46,8.38-56.15C91.86,81.44,93.76,73,98,65.38a27.93,27.93,0,0,1,5.71-7.17c3.69-3.28,8.42-3.28,11.84.38A35.44,35.44,0,0,1,122.41,69c4.86,11.85,6.8,24.47,8.87,37,3,18.33,6.07,36.65,9.3,54.94a29.19,29.19,0,0,0,5.71,12.87c1.52-3.56,3.26-6.48,4-9.64,2.09-8.86,3.9-17.79,5.57-26.74,2.19-11.75,4-23.56,6.22-35.31,1.79-9.54,3.6-19.09,6-28.5a41,41,0,0,1,5.44-11.61c4.6-7.21,11.59-7.45,17-.78,4.31,5.35,6.41,11.85,7.86,18.36,2.45,11,4.2,22.12,6.25,33.2l0.26,1.39c1.75,0,8.74-.14,10.58-0.14,0-.49,0-0.83-0.07-1.31-0.29-4.11-.48-7.69,1.29-6.6,0.58,0.36.3,0.24,1.69,1,6.16,3.64,10.54,6.87,16.56,10.44,3.91,2.17,3.59,5.46-.57,7.66-4.76,2.79-9.9,6.24-15.17,8.7-5,2.26-3.57.61-4-6h-8.47c1.29,7.73,2.48,15.35,3.87,22.92,0.72,3.88,1.7,7.72,2.79,11.52,1.35,4.74,3.28,9.23,6.71,12.94a8.36,8.36,0,0,1,1.57,2.64c0.87,2.26,0,4-1.83,5.42s-3.51,1.12-5.19-.2a23.65,23.65,0,0,1-8.4-12.14c-2.65-9.33-5-18.75-7.2-28.2-1.12-4.83-1.59-9.82-2.41-15.05H168.45c-0.52,3.78-1,7.4-1.52,11-1.56,11.18-3.48,22.28-7.78,32.79a37.08,37.08,0,0,1-4.48,8.09c-4.91,6.59-11.19,6.81-16.66.69a30.72,30.72,0,0,1-7.25-14.1q-4.2-19.79-7.74-39.73c-2.58-14.39-4.65-28.87-7.34-43.23-0.84-4.5-2.92-8.79-4.52-13.14A25.66,25.66,0,0,0,109,66.74c-1.39,3.34-2.89,5.91-3.53,8.67-2.15,9.2-4.17,18.43-5.91,27.71-2.27,12.08-4.06,24.25-6.39,36.32-1.88,9.78-4,19.53-6.52,29.16-1,3.66-3.07,7.08-5.06,10.36a13.54,13.54,0,0,1-4.5,4.13c-3.56,2.19-6.77,1.68-9.92-1.12-4.42-3.93-6.59-9.17-8.36-14.6-4.26-13.06-6.22-26.61-8.2-40.14-2.39-16.42-3.82-33-8.81-49-1.21-3.87-3-7.56-4.49-11.33ZM195,114.1c-1.45-8.09-2.63-15.66-4.22-23.14-1.3-6.12-2.94-12.18-4.74-18.18-0.63-2.11-2.17-3.95-3.29-5.91l-1.18.13c-8,14.66-8.39,31.17-11.35,47.09H195Z" transform="translate(-12.34 -53.81)"/><path class="whatsapnea" d="M146.25,186.9c-3.39,0-6.74-1.75-9.73-5.1a32.89,32.89,0,0,1-7.71-15c-2.69-12.68-5.23-25.7-7.75-39.79-1.16-6.48-2.24-13.08-3.28-19.46-1.27-7.8-2.59-15.87-4.06-23.76a49.76,49.76,0,0,0-3-9.17c-0.48-1.19-1-2.38-1.39-3.57a26.13,26.13,0,0,0-1.86,4.85c-2.41,10.29-4.33,19.33-5.9,27.63-1.07,5.71-2.06,11.55-3,17.19-1.06,6.28-2.15,12.77-3.38,19.14-2.06,10.68-4.2,20.26-6.55,29.29-1,3.86-3.11,7.33-5.15,10.68l-0.13.22a15.18,15.18,0,0,1-5.16,4.79c-4.24,2.61-8.38,2.16-12.3-1.33-4.8-4.28-7.13-10-8.93-15.47-4.29-13.16-6.3-26.94-8.24-40.27l0-.21c-0.51-3.5-1-7-1.44-10.51-1.68-12.66-3.42-25.75-7.3-38.13-0.8-2.56-1.89-5.12-2.94-7.6l-0.61-1.45-0.21.36A17.29,17.29,0,0,0,34,74.75c-2.53,11.15-4.75,22.49-6.71,32.5-0.5,2.53-.88,5.14-1.25,7.67-0.27,1.84-.54,3.69-0.86,5.53a7.4,7.4,0,0,1-1.74,4.18c-1.29,1.26-3.25,2.73-5.26,2.58a6.57,6.57,0,0,1-5-3.87,15.09,15.09,0,0,1-.7-7l0.38-2.68c1.38-9.78,2.8-19.88,4.67-29.76A89.46,89.46,0,0,1,22.6,67.26a28.92,28.92,0,0,1,6.22-9.34A10.89,10.89,0,0,1,37,54.44a10.65,10.65,0,0,1,7.69,4.1,43.39,43.39,0,0,1,6.63,11.35c4.17,10.41,6,21.5,7.69,32.23l0.29,1.78q1,6.32,2,12.64c2.18,13.55,4.43,27.56,6.85,41.3A44.76,44.76,0,0,0,71,166.49c0.39,1,.78,1.95,1.14,2.92a7.75,7.75,0,0,0,.69,1.32A17.92,17.92,0,0,0,74,168.8c3.62-7.54,5.09-15.83,6.19-23,1.2-7.85,2.36-15.84,3.49-23.57,1.56-10.69,3.17-21.74,4.89-32.59,1.24-7.85,3.13-17,7.71-25.22a29.8,29.8,0,0,1,6.13-7.7c4.55-4.05,10.57-3.84,14.63.51a37.2,37.2,0,0,1,7.24,11C129,79.82,131,92.2,133,104.17l0.26,1.56c2.87,17.41,6,36.12,9.3,54.92a26.45,26.45,0,0,0,3.4,9.15l0-.08a30.83,30.83,0,0,0,2.36-6c1.87-7.95,3.69-16.66,5.55-26.65,1.08-5.77,2.08-11.67,3.06-17.36,1-5.89,2-12,3.17-17.95,2-10.65,3.71-19.52,6-28.62A42.08,42.08,0,0,1,171.82,61c2.55-4,6-6.31,9.67-6.51S189,56.25,192,60c4.88,6.06,7,13.43,8.25,19.18C202,87,203.42,95,204.78,102.66c0.56,3.19,1.13,6.38,1.71,9.56l3.48-.05,3.32-.05c-0.28-4.24-.27-6.72,1.46-7.76a2.72,2.72,0,0,1,2.93.13l0.47,0.3c0.17,0.12.35,0.23,1.18,0.71,3.18,1.88,5.9,3.65,8.53,5.37s5.12,3.34,8.05,5.08c3.27,1.82,3.75,4.14,3.73,5.36,0,2.25-1.58,4.3-4.38,5.79-1.25.74-2.6,1.56-4,2.41A116.38,116.38,0,0,1,220,135.84c-2.22,1-3.89,1.62-5.31.69s-1.43-2.56-1.42-4.8c0-.51,0-1.08,0-1.72h-4.19q0.37,2.25.74,4.49c0.87,5.28,1.76,10.75,2.74,16.06,0.62,3.33,1.49,6.94,2.74,11.33,1.51,5.29,3.5,9.15,6.25,12.14a10.43,10.43,0,0,1,2,3.28c1.1,2.88.23,5.62-2.46,7.72-2.4,1.87-5.11,1.8-7.65-.2a25.46,25.46,0,0,1-9.08-13.16c-2.48-8.72-4.84-18-7.23-28.29-0.79-3.4-1.25-6.77-1.74-10.34-0.14-1-.29-2.1-0.44-3.16H170.19L169.9,132c-0.33,2.43-.66,4.82-1,7.2-1.43,10.23-3.33,22.08-7.9,33.27a38.83,38.83,0,0,1-4.72,8.53c-2.77,3.71-6.08,5.75-9.6,5.91h-0.44ZM108.69,62.36l2,3.34c0.35,0.57.66,1,.94,1.45A11.69,11.69,0,0,1,113,69.58c0.44,1.18.91,2.36,1.38,3.54A53.52,53.52,0,0,1,117.65,83c1.49,7.94,2.8,16,4.08,23.85,1,6.37,2.11,12.95,3.27,19.4,2.52,14,5,27,7.73,39.67a28.89,28.89,0,0,0,6.78,13.18c2.29,2.56,4.7,3.86,7,3.76s4.54-1.59,6.57-4.31a34.87,34.87,0,0,0,4.23-7.65c4.4-10.77,6.25-22.32,7.65-32.31,0.33-2.38.66-4.77,1-7.2l0.76-5.54h31.63l0.26,1.69c0.26,1.67.48,3.3,0.71,4.92,0.48,3.48.93,6.77,1.67,10,2.37,10.25,4.72,19.44,7.18,28.1a21.55,21.55,0,0,0,7.71,11.11c1.23,1,1.93.8,2.72,0.19,1.62-1.26,1.53-2.25,1.19-3.13a6.39,6.39,0,0,0-1.17-2c-3.19-3.47-5.47-7.84-7.16-13.75-1.29-4.52-2.19-8.24-2.83-11.71-1-5.36-1.89-10.84-2.76-16.14q-0.56-3.39-1.12-6.81L204.35,126h12.72l0.11,1.88c0.09,1.55.09,2.83,0.08,3.86,0,0.3,0,.62,0,0.92l1.07-.46a113.64,113.64,0,0,0,10.85-6.11c1.4-.86,2.78-1.7,4.12-2.49,1.73-.92,2.33-1.83,2.33-2.33s-0.66-1.26-1.72-1.85c-3.06-1.81-5.7-3.53-8.25-5.2s-5.28-3.44-8.36-5.26l-0.16-.09c0,1.23.12,2.83,0.18,3.78,0,0.24,0,.45,0,0.65s0,0.41,0,.65l0.16,2.15h-2.16c-0.93,0-3.17,0-5.38.07s-4.33.07-5.2,0.07h-1.66l-0.56-3c-0.61-3.28-1.19-6.57-1.77-9.85-1.35-7.66-2.75-15.58-4.46-23.27-1.19-5.32-3.1-12.12-7.46-17.54-2.22-2.76-4.77-4.2-7.2-4.07s-4.66,1.74-6.52,4.67a38.3,38.3,0,0,0-5.19,11c-2.28,9-4,17.79-6,28.37-1.11,5.94-2.15,12-3.16,17.89-1,5.71-2,11.62-3.07,17.42-1.87,10-3.7,18.82-5.59,26.83a34.21,34.21,0,0,1-2.64,6.75c-0.49,1-1,2.1-1.47,3.22l-1.35,3.19-2.08-2.76a31,31,0,0,1-6.08-13.73c-3.33-18.82-6.44-37.54-9.3-55L129,104.81c-1.93-11.75-3.92-23.89-8.49-35A33.18,33.18,0,0,0,114.09,60c-2.61-2.8-6.07-2.89-9-.25a26.11,26.11,0,0,0-5.3,6.65c-4.28,7.69-6.07,16.4-7.26,23.9-1.71,10.83-3.32,21.87-4.88,32.54-1.13,7.74-2.3,15.74-3.49,23.6-1.14,7.47-2.68,16.11-6.53,24.14a27.31,27.31,0,0,1-1.9,3.19c-0.35.54-.73,1.12-1.14,1.77l-1.73,2.78-1.68-2.81c-0.37-.61-0.71-1.14-1-1.63a15.42,15.42,0,0,1-1.68-3c-0.36-1-.73-1.9-1.11-2.85a48.41,48.41,0,0,1-3-9.44c-2.42-13.77-4.67-27.79-6.86-41.35q-1-6.32-2-12.64l-0.29-1.78c-1.7-10.51-3.45-21.38-7.46-31.38a39.32,39.32,0,0,0-6-10.29,6.62,6.62,0,0,0-4.78-2.65,6.93,6.93,0,0,0-5.19,2.3,24.82,24.82,0,0,0-5.35,8,85.54,85.54,0,0,0-4.85,15.87c-1.85,9.79-3.27,19.85-4.64,29.58l-0.38,2.68a11.12,11.12,0,0,0,.49,5.11,3,3,0,0,0,1.59,1.24,5.07,5.07,0,0,0,2.15-1.45,4.49,4.49,0,0,0,.59-2c0.31-1.81.58-3.62,0.84-5.43,0.38-2.58.77-5.24,1.29-7.86,2-10,4.2-21.4,6.74-32.61a20.46,20.46,0,0,1,2.56-5.68c0.44-.76.86-1.48,1.22-2.2l0.58-1.16L38.72,65l0.48,1.2c0.47,1.17,1,2.34,1.46,3.51,1.09,2.57,2.22,5.23,3.08,8,4,12.71,5.74,26,7.45,38.8,0.46,3.49.93,7,1.44,10.46l0,0.21c1.92,13.16,3.9,26.77,8.09,39.6,1.88,5.75,3.92,10.28,7.78,13.72,2.58,2.3,4.84,2.57,7.54.91a11.52,11.52,0,0,0,3.84-3.46l0.13-.22c1.89-3.11,3.84-6.32,4.7-9.61,2.33-8.94,4.45-18.44,6.5-29,1.22-6.32,2.31-12.79,3.36-19,1-5.66,1.94-11.52,3-17.27,1.57-8.35,3.51-17.45,5.93-27.8a31.48,31.48,0,0,1,2.29-6c0.44-.95.9-1.94,1.34-3Zm88.67,53.74H167.79l0.44-2.36c0.74-4,1.32-8.07,1.89-12,1.71-12,3.49-24.37,9.67-35.65l0.5-.91,3.52-.4,0.65,1.14c0.33,0.58.71,1.15,1.08,1.72a18,18,0,0,1,2.39,4.61c2.08,6.95,3.6,12.78,4.78,18.33,1.11,5.22,2,10.4,2.95,15.89,0.41,2.4.83,4.83,1.28,7.31Zm-24.78-4h20q-0.45-2.52-.87-5c-0.94-5.45-1.83-10.59-2.92-15.74-1.16-5.45-2.65-11.18-4.7-18a14.19,14.19,0,0,0-1.82-3.43c-5,10.09-6.56,20.92-8.2,32.34C173.62,105.49,173.14,108.81,172.58,112.1Z" transform="translate(-12.34 -53.81)"/></svg>